<?xml version="1.0" encoding="UTF-8"?>
<svg xmlns="http://www.w3.org/2000/svg" id="Layer_1" data-name="Layer 1" viewBox="0 0 24 24">
  <path fill="#CDD6F4" d="m20.711,18.063l-.776-7.761c-.245-2.453-2.289-4.302-4.754-4.302h-6.361c-2.465,0-4.509,1.85-4.754,4.302l-.776,7.761c-1.868.336-3.289,1.974-3.289,3.937,0,1.103.897,2,2,2h20c1.103,0,2-.897,2-2,0-1.963-1.422-3.6-3.289-3.937Zm-14.655-7.562c.143-1.426,1.331-2.501,2.764-2.501h6.361c1.433,0,2.621,1.075,2.764,2.501l.75,7.499H5.306l.75-7.499Zm-4.056,11.499c0-1.103.897-2,2-2h16c1.103,0,2,.897,2,2H2ZM20.797,6.211c-.393-.388-.396-1.021-.008-1.414l1.5-1.517c.388-.393,1.021-.396,1.414-.008s.396,1.021.008,1.414l-1.5,1.517c-.195.198-.453.297-.711.297-.254,0-.508-.096-.703-.289Zm-4.327-3.896l.92-1.775c.253-.49.856-.681,1.348-.427.49.254.682.858.427,1.348l-.92,1.775c-.178.343-.527.54-.889.54-.155,0-.312-.036-.459-.112-.49-.254-.682-.858-.427-1.348ZM.289,4.687c-.388-.393-.385-1.026.008-1.414s1.026-.385,1.414.008l1.5,1.517c.388.393.385,1.026-.008,1.414-.195.193-.449.289-.703.289-.258,0-.516-.099-.711-.297l-1.5-1.517ZM4.834,1.46c-.254-.49-.063-1.094.427-1.348.493-.253,1.095-.062,1.348.427l.92,1.775c.254.49.063,1.094-.427,1.348-.147.076-.305.112-.459.112-.362,0-.711-.196-.889-.54l-.92-1.775Zm2.991,11.44l.2-2c.051-.511.481-.9.995-.9h1.979c.552,0,1,.448,1,1s-.448,1-1,1h-1.075l-.11,1.1c-.052.516-.486.9-.994.9-.033,0-.067-.001-.101-.005-.549-.055-.95-.545-.896-1.095Z"/>
</svg>
